<svg xmlns="http://www.w3.org/2000/svg" width="1584" height="396" viewBox="0 0 1584 396">
  <defs>
    <linearGradient id="bgGrad" x1="0%" y1="0%" x2="100%" y2="100%">
      <stop offset="0%" style="stop-color:#0a1628"/>
      <stop offset="100%" style="stop-color:#1e293b"/>
    </linearGradient>
  </defs>

  <rect width="1584" height="396" fill="url(#bgGrad)"/>

  <!-- Logo Mark -->
  <g transform="translate(120, 138) scale(3)">
    <!-- N -->
    <path d="M4 36 L4 4 L20 36 L20 4" stroke="#ffffff" stroke-width="4" stroke-linecap="round" stroke-linejoin="round" fill="none"/>
    <!-- T -->
    <path d="M30 4 L50 4" stroke="#ffffff" stroke-width="4" stroke-linecap="round"/>
    <path d="M40 4 L40 36" stroke="#ffffff" stroke-width="4" stroke-linecap="round"/>
    <!-- S -->
    <path d="M56 10 C56 4 60 4 66 4 L74 4 C80 4 84 4 84 10 C84 16 80 18 74 18 L66 18 C60 18 56 20 56 26 L56 30 C56 36 60 36 66 36 L74 36 C80 36 84 36 84 30" stroke="#8a9ba8" stroke-width="5" stroke-linecap="round" fill="none"/>
  </g>

  <!-- Company Name -->
  <text x="480" y="185" font-family="system-ui, -apple-system, sans-serif" font-size="48" font-weight="700" fill="#ffffff">NeoTechnology Solutions</text>

  <!-- Tagline -->
  <text x="480" y="240" font-family="system-ui, -apple-system, sans-serif" font-size="24" font-weight="400" fill="#8a9ba8">Independent IT Decision Advisory</text>
</svg>
