<svg xmlns="http://www.w3.org/2000/svg" width="100" height="40" viewBox="0 0 100 40" fill="none">
  <!-- NTS Geometric Mark - Light version for dark backgrounds -->
  <!-- N -->
  <path d="M4 36 L4 4 L20 36 L20 4" stroke="#ffffff" stroke-width="4" stroke-linecap="round" stroke-linejoin="round" fill="none"/>

  <!-- T -->
  <path d="M30 4 L50 4" stroke="#ffffff" stroke-width="4" stroke-linecap="round"/>
  <path d="M40 4 L40 36" stroke="#ffffff" stroke-width="4" stroke-linecap="round"/>

  <!-- S -->
  <path d="M56 10 C56 4 60 4 66 4 L74 4 C80 4 84 4 84 10 C84 16 80 18 74 18 L66 18 C60 18 56 20 56 26 L56 30 C56 36 60 36 66 36 L74 36 C80 36 84 36 84 30" stroke="#8a9ba8" stroke-width="5" stroke-linecap="round" fill="none"/>
</svg>
